<svg width="121" height="120" viewBox="0 0 121 120" fill="none" xmlns="http://www.w3.org/2000/svg">
<path d="M74.2847 95.625C69.9622 97.3191 65.2566 98.25 60.3335 98.25C55.4105 98.25 50.7048 97.319 46.3823 95.625H74.2847ZM80.3081 92.625C79.1146 93.3573 77.8774 94.0247 76.6021 94.625H44.0649C42.7896 94.0247 41.5524 93.3573 40.3589 92.625H80.3081ZM84.5278 89.625C83.6666 90.3292 82.7744 90.9968 81.853 91.625H38.813C37.8916 90.9968 36.9994 90.3292 36.1382 89.625H84.5278ZM87.7925 86.625C87.1207 87.3177 86.4228 87.9846 85.7007 88.625H34.9653C34.2434 87.9847 33.5461 87.3175 32.8745 86.625H87.7925ZM91.1743 82.625C90.6714 83.3094 90.1464 83.9764 89.6001 84.625H31.0669C30.5204 83.9762 29.9947 83.3096 29.4917 82.625H91.1743ZM93.7466 78.625C93.3672 79.3042 92.9701 79.9721 92.5513 80.625H28.1147C27.6959 79.9721 27.2989 79.3042 26.9194 78.625H93.7466ZM96.4478 72.625C96.2116 73.3005 95.9574 73.9674 95.6851 74.625H24.9819C24.7096 73.9674 24.4554 73.3005 24.2192 72.625H96.4478ZM97.8218 67.625C97.6856 68.2982 97.5328 68.9652 97.3618 69.625H23.3052C23.1341 68.9651 22.9804 68.2982 22.8442 67.625H97.8218ZM60.3335 21.75C81.4582 21.7502 98.5835 38.8752 98.5835 60C98.5835 61.2227 98.5228 62.4317 98.4106 63.625H22.2554C22.1432 62.4317 22.0835 61.2227 22.0835 60C22.0835 38.8751 39.2086 21.75 60.3335 21.75Z" fill="#010018" style="fill:#010018;fill:color(display-p3 0.0039 0.0000 0.0941);fill-opacity:1;"/>
</svg>
