<svg xmlns="http://www.w3.org/2000/svg" width="2518" height="304" fill="none"><path stroke="url(#a)" stroke-width="4" d="M1250.42 313.839V-8m380.66 321.839L1400.15-6.054M895.135 313.517 1121-6.054m857.76 319.571L1521.96-5.73M546.193 314 999.183-5.73M2332.77 313.678 1633.62-5.73M183.294 313.517 887.522-5.73M2529.45 253.509l-766.4-259.24M-8.307 253.51 758.096-5.731M2529.45 143.264 1892.47-6.379M-8.307 143.263 628.671-6.379M2524.38 89.6 2034.59-6.703M-3.231 89.6 486.556-6.703M2531.99 47.771l-342.6-54.474M-10.844 47.771 331.753-6.703M2524.38 12.752 2341.66-6.703M-3.23 12.752 179.487-6.703M-8.307 268.262H2526.91M-7.038 228.329H2529.45M-.693 192.272H2529.45M-13.99 161.908h2542.17M-13.99 110.676h2542.17M-.693 134.599H2530.72m-2531.413-45H2523.11M-13.99 47.772h2543.44M-13.99 68.361h2539.63M-5.769 30.521H2524.38M-4.5 12.363h2532.68"/><defs><linearGradient id="a" x1="1259" x2="1259" y1="314" y2="-8" gradientUnits="userSpaceOnUse"><stop stop-color="#6767FF" style="stop-color:#6767ff;stop-color:color(display-p3 .4039 .4039 1);stop-opacity:1"/><stop offset="1" stop-color="#FED300" style="stop-color:#fed300;stop-color:color(display-p3 .9961 .8275 0);stop-opacity:1"/></linearGradient></defs></svg>