<svg xmlns="http://www.w3.org/2000/svg" width="1440" height="304" fill="none"><path stroke="url(#a)" stroke-width="4" d="M715.094 312.839V-9m217.695 321.839L800.721-7.054M511.912 312.517 641.078-7.054m490.542 319.571L870.383-6.73M312.359 313 571.416-6.73m762.654 319.408L934.24-6.73M104.823 312.517 507.558-6.73m938.992 259.239L1008.26-6.731M-4.75 252.51 433.542-6.731M1446.55 142.264 1082.27-7.379M-4.75 142.263 359.526-7.379M1443.65 88.6l-280.1-96.303M-1.848 88.6 278.253-7.703M1448 46.771 1252.07-7.703M-6.201 46.771 189.724-7.703M1443.65 11.752l-104.5-19.455M-1.847 11.752 102.646-7.703M-4.75 267.262H1445.1M-4.025 227.329H1446.55M-.396 191.272H1446.55M-8 160.908h1453.82M-8 109.676h1453.82M-.396 133.599H1447.27m-1447.666-45H1442.92M-8 46.772h1454.55M-8 67.361h1452.37M-3.299 29.521H1443.65M-2.573 11.363H1445.82"/><defs><linearGradient id="a" x1="720" x2="720" y1="-9" y2="313" gradientUnits="userSpaceOnUse"><stop stop-color="#FF8359" style="stop-color:#ff8359;stop-color:color(display-p3 1 .5137 .349);stop-opacity:1"/><stop offset="1" stop-color="#fff" style="stop-color:white;stop-opacity:1"/></linearGradient></defs></svg>