<svg xmlns="http://www.w3.org/2000/svg" fill="none" width="2518" height="304"><path stroke="url(#a)" stroke-width="4" d="M1250.42 315.839V-6m380.66 321.839L1400.15-4.054M895.135 315.517 1121-4.054m857.76 319.571L1521.96-3.73M546.193 316 999.183-3.73M2332.77 315.678 1633.62-3.73M183.294 315.517 887.522-3.73M2529.45 255.509l-766.4-259.24M-8.307 255.51 758.096-3.731M2529.45 145.264 1892.47-4.379M-8.307 145.263 628.671-4.379M2524.38 91.6 2034.59-4.703M-3.231 91.6 486.556-4.703M2531.99 49.771l-342.6-54.474M-10.844 49.771 331.753-4.703M2524.38 14.752 2341.66-4.703M-3.23 14.752 179.487-4.703M-8.307 270.262H2526.91M-7.038 230.329H2529.45M-.693 194.272H2529.45M-13.99 163.908h2542.17M-13.99 112.676h2542.17M-.693 136.599H2530.72m-2531.413-45H2523.11M-13.99 49.772h2543.44M-13.99 70.361h2539.63M-5.769 32.521H2524.38M-4.5 14.363h2532.68"/><defs><linearGradient id="a" x1="1259" x2="1259" y1="316" y2="-6" gradientUnits="userSpaceOnUse"><stop stop-color="#FF8359" style="stop-color:#ff8359;stop-color:color(display-p3 1 .5137 .349);stop-opacity:1"/><stop offset="1" stop-color="#6767FF" style="stop-color:#6767ff;stop-color:color(display-p3 .4039 .4039 1);stop-opacity:1"/></linearGradient></defs></svg>