<svg xmlns="http://www.w3.org/2000/svg" fill="none" viewBox="0 0 253 253"><circle cx="127" cy="126" r="126" fill="#FED300" style="fill:#fed300;fill:color(display-p3 .9978 .8257 0);fill-opacity:1"/><path fill="#010018" d="M155.075 249.112a126.537 126.537 0 0 1-28.412 3.213c-8.248 0-16.312-.792-24.119-2.304l52.531-.909Zm27.325-9.738a125.48 125.48 0 0 1-15.332 6.341l-84.92-1.469c-2.571-.97-5.102-2.021-7.59-3.15l107.842-1.722Zm16.11-9.493a126.474 126.474 0 0 1-10.885 6.762l-125.413-2.002a127.498 127.498 0 0 1-4.336-2.703l140.634-2.057Zm11.944-9.4a126.476 126.476 0 0 1-8.533 6.948l-153.446-2.248a130.076 130.076 0 0 1-3.066-2.502l165.045-2.198Zm9.451-9.333a126.898 126.898 0 0 1-6.88 6.981l-175.144-2.332c-.81-.803-1.61-1.616-2.4-2.441l184.424-2.208Zm7.7-9.296a126.665 126.665 0 0 1-5.592 6.928l-192.659-2.312c-.677-.821-1.344-1.65-2.002-2.488l200.253-2.128Zm6.334-9.262a126.211 126.211 0 0 1-4.527 6.795l-207.035-2.202a126.52 126.52 0 0 1-1.732-2.606l213.294-1.987Zm5.207-9.237a125.392 125.392 0 0 1-3.622 6.611l-218.898-2.041a123.793 123.793 0 0 1-1.516-2.776l224.036-1.794Zm4.233-9.21a125.586 125.586 0 0 1-2.83 6.369l-228.624-1.82c-.456-.994-.9-1.995-1.331-3.003l232.785-1.546Zm3.372-9.201a124.432 124.432 0 0 1-2.144 6.104L8.131 169.475a125.992 125.992 0 0 1-1.14-3.262l239.76-1.271Zm2.582-9.188c-.47 1.955-.985 3.892-1.545 5.81L5.167 160.271a124.814 124.814 0 0 1-.937-3.54l245.103-.977Zm1.848-9.18c-.301 1.847-.642 3.68-1.022 5.498l-247.196-.987c-.256-1.277-.493-2.56-.71-3.851l248.928-.66Zm1.133-31.831a127.595 127.595 0 0 1-.548 27.828l-250.292-.664a126.424 126.424 0 0 1-.45-4.177l251.29-.329v-4.336L.668 132.728a128.27 128.27 0 0 1-.14-9.088v4.583h251.786v-4.666H.529c.033-1.622.095-3.236.189-4.842l251.596.337v-4.309Zm-.532-4.864c.178 1.383.333 2.773.466 4.17l-251.204.336c.16-1.736.357-3.461.587-5.175l250.151.669Zm-1.529-9.185c.262 1.279.502 2.565.726 3.857l-248.747.659a125.34 125.34 0 0 1 1.047-5.501l246.974.985Zm-2.248-9.185c.335 1.174.652 2.355.953 3.543l-244.837.977a125.2 125.2 0 0 1 1.573-5.811l242.311 1.29Zm-3.011-9.197c.399 1.077.785 2.16 1.155 3.252L6.75 86.84a125.22 125.22 0 0 1 2.177-6.102l236.067 1.575Zm-3.841-9.218c.462.993.909 1.994 1.345 3L10.171 77.64a125.457 125.457 0 0 1 2.864-6.366l228.118 1.82Zm-4.763-9.237c.523.92 1.034 1.846 1.535 2.779L14.46 68.42a125.834 125.834 0 0 1 3.653-6.592l218.277 2.028Zm-5.811-9.255c.594.86 1.177 1.729 1.749 2.604L19.729 59.183a126.375 126.375 0 0 1 4.569-6.78l206.281 2.2Zm-7.064-9.29c.685.82 1.36 1.648 2.025 2.486L26.134 49.924c1.8-2.37 3.681-4.673 5.64-6.907l191.741 2.294Zm-8.624-9.331c.822.804 1.633 1.622 2.433 2.449l-183.4 2.196a126.925 126.925 0 0 1 6.942-6.962l174.025 2.316Zm-10.74-9.384c1.054.82 2.095 1.658 3.121 2.511L43.506 31.284a126.744 126.744 0 0 1 8.606-6.911l152.039 2.224Zm-13.975-9.465c1.503.877 2.988 1.783 4.451 2.72l-139 2.033a126.161 126.161 0 0 1 11.024-6.726l123.525 1.973Zm-20.524-9.616c2.685.972 5.326 2.033 7.922 3.18L72.089 12.382A125.32 125.32 0 0 1 87.8 6.099l81.851 1.417ZM126.663 0c7.284 0 14.424.619 21.37 1.804l-47.06.814A126.709 126.709 0 0 1 126.663 0Z" style="fill:#010018;fill:color(display-p3 .0039 0 .0941);fill-opacity:1"/><path fill="#010018" stroke="#FED300" stroke-width="3" d="M125.876 58.986c0 3.837-.863 9.887-1.7 14.884a294.564 294.564 0 0 1-1.65 8.959l-.029.14-.007.036-.002.01v.003l-1.47-.302 1.469.302-.247 1.198h-11.061c-5.59.586-9.259 2.065-11.554 4.44-2.283 2.363-3.45 5.87-3.45 11.075v6.036h37.596v-8.723c0-22.007 20.962-40.529 44.26-40.529 4.122 0 7.978.094 10.889.264 1.452.085 2.694.19 3.626.317.462.063.883.135 1.229.222.171.043.357.099.533.17.127.053.359.157.583.35l.096.087.143.162c.305.391.402.842.443 1.048.064.327.095.698.109 1.078.027.768-.012 1.755-.103 2.876-.182 2.254-.581 5.197-1.147 8.328l-1.94 11.037-.217 1.24h-9.618c-5.421 0-9.573 1.37-12.541 3.911-2.964 2.538-4.927 6.4-5.674 11.736l-.001.008-.945 6.493h33.273v28.074h-32.835v81.117h-30.163v-81.117H96.158l-.953 79.634-.017 1.471-1.471.012-28.059.223-1.511.012v-81.352h-27.09v-28.149h27.09v-5.663c0-25.948 19.299-44.559 45.975-44.559 7.249 0 10.808.237 12.654.641.936.205 1.66.498 2.188 1.019.263.259.419.518.516.692.117.211.102.196.129.234l.267.386v.469Z" style="fill:#010018;fill:color(display-p3 .0039 0 .0941);fill-opacity:1;stroke:#fed300;stroke:color(display-p3 .9978 .8257 0);stroke-opacity:1"/><path fill="#FED300" stroke="#010018" stroke-width="3" d="M136.367 48.495c0 3.836-.863 9.887-1.7 14.883a294.564 294.564 0 0 1-1.65 8.96l-.029.14-.007.036-.002.009v.004l-1.47-.302 1.469.302-.246 1.198H121.67c-5.59.586-9.259 2.065-11.554 4.44-2.283 2.363-3.45 5.87-3.45 11.075v6.036h37.596v-8.723c0-22.008 20.962-40.529 44.26-40.53 4.122 0 7.978.094 10.889.265 1.452.084 2.694.19 3.626.317.463.063.883.135 1.229.222.171.043.357.098.533.17.127.053.359.157.583.35l.096.087.143.162c.305.39.402.842.443 1.048.064.327.095.698.109 1.078.027.768-.012 1.755-.103 2.876-.182 2.254-.581 5.196-1.147 8.327l-1.939 11.037-.218 1.24h-9.617c-5.422 0-9.574 1.37-12.541 3.912-2.964 2.538-4.928 6.4-5.675 11.736l-.001.008-.945 6.493h33.273v28.073h-32.835v81.118h-30.163v-81.118h-37.613l-.953 79.635-.017 1.471-1.471.012-28.058.223-1.512.012v-81.353H47.549V95.276h27.089v-5.663c0-25.948 19.299-44.559 45.975-44.559 7.249 0 10.808.236 12.654.64.936.206 1.66.5 2.188 1.02.263.258.42.518.516.692.117.21.102.195.129.234l.267.386v.469Z" style="fill:#fed300;fill:color(display-p3 .9978 .8257 0);fill-opacity:1;stroke:#010018;stroke:color(display-p3 .0039 0 .0941);stroke-opacity:1"/></svg>