<svg width="121" height="120" viewBox="0 0 121 120" fill="none" xmlns="http://www.w3.org/2000/svg">
<path d="M40.5332 70.9051C39.9426 70.892 39.3614 70.754 38.828 70.5C38.2945 70.2461 37.8209 69.8821 37.4383 69.4319C37.0557 68.9818 36.7728 68.4557 36.6082 67.8883C36.4435 67.3209 36.401 66.7251 36.4832 66.14C36.5655 65.555 36.7707 64.994 37.0854 64.494C37.4002 63.994 37.8172 63.5663 38.3091 63.2392C38.801 62.912 39.3567 62.6927 39.9395 62.5957C40.5222 62.4987 41.1189 62.5263 41.6903 62.6766L43.8885 47.0359C44.2417 44.5248 45.5778 42.2567 47.6031 40.7307C49.6284 39.2046 52.1769 38.5455 54.6881 38.8982L59.8053 39.6154C59.3395 39.0385 59.0373 38.347 58.9303 37.6133C58.8238 36.8783 58.9149 36.1283 59.1942 35.4402C59.4735 34.752 59.9309 34.1507 60.5195 33.6978C61.1081 33.2449 61.8066 32.9569 62.5433 32.8633C63.28 32.7697 64.0284 32.8739 64.7115 33.1651C65.3946 33.4564 65.9879 33.9242 66.4304 34.5206C66.8729 35.117 67.1487 35.8205 67.2295 36.5587C67.3102 37.2969 67.193 38.0433 66.8898 38.7213C66.5867 39.3992 66.1085 39.9843 65.5045 40.4163L75.8272 41.8674L74.2482 30.6315C73.9815 28.7488 72.9788 27.0488 71.4601 25.9045C69.9414 24.7603 68.0308 24.2653 66.1476 24.5282L30.6337 29.521C28.751 29.7877 27.051 30.7904 25.9067 32.3091C24.7625 33.8278 24.2675 35.7384 24.5304 37.6217L29.5208 73.132C29.7875 75.0147 30.7902 76.7147 32.3089 77.8589C33.8276 79.0032 35.7382 79.4982 37.6215 79.2353L39.3977 78.9854L40.5332 70.9051ZM32.8892 41.2745C32.7731 40.4551 32.9027 39.6197 33.2615 38.8739C33.6204 38.1281 34.1923 37.5055 34.9051 37.0849C35.6178 36.6642 36.4393 36.4644 37.2656 36.5107C38.0919 36.5571 38.8859 36.8474 39.5472 37.3451C40.2084 37.8427 40.7072 38.5253 40.9805 39.3065C41.2537 40.0877 41.2891 40.9324 41.0822 41.7337C40.8753 42.5351 40.4353 43.257 39.818 43.8083C39.2007 44.3595 38.4338 44.7153 37.6143 44.8306C36.5162 44.9851 35.4018 44.6973 34.5158 44.0305C33.6298 43.3637 33.0447 42.3724 32.8892 41.2745Z" fill="#010018" style="fill:#010018;fill:color(display-p3 0.0039 0.0000 0.0941);fill-opacity:1;"/>
<path d="M89.8662 46.2552L54.3558 41.2648C52.4726 41.0019 50.562 41.4969 49.0433 42.6411C47.5246 43.7853 46.5219 45.4853 46.2552 47.368L41.2648 82.8784C41.0019 84.7616 41.4969 86.6722 42.6411 88.1909C43.7853 89.7096 45.4853 90.7123 47.368 90.979L82.8784 95.9694C84.7616 96.2323 86.6722 95.7373 88.1909 94.5931C89.7096 93.4489 90.7123 91.7489 90.979 89.8662L95.9694 54.3558C96.2323 52.4726 95.7373 50.562 94.5931 49.0433C93.4489 47.5246 91.7489 46.5219 89.8662 46.2552ZM53.1844 83.9506C52.365 83.8354 51.5982 83.4799 50.9809 82.9289C50.3636 82.378 49.9235 81.6563 49.7163 80.8553C49.5091 80.0542 49.5441 79.2097 49.8169 78.4285C50.0896 77.6473 50.5879 76.9646 51.2487 76.4666C51.9095 75.9686 52.7032 75.6778 53.5293 75.6308C54.3554 75.5839 55.1768 75.783 55.8898 76.2029C56.6027 76.6228 57.1752 77.2447 57.5347 77.99C57.8942 78.7352 58.0246 79.5704 57.9095 80.3897C57.8331 80.9338 57.6502 81.4575 57.3714 81.9309C57.0926 82.4043 56.7232 82.8181 56.2844 83.1488C55.8457 83.4794 55.3461 83.7204 54.8142 83.858C54.2823 83.9956 53.7285 84.027 53.1844 83.9506ZM56.8445 57.9095C56.0247 57.7953 55.2573 57.4404 54.6393 56.8899C54.0212 56.3394 53.5804 55.6179 53.3725 54.8168C53.1646 54.0157 53.199 53.1709 53.4713 52.3893C53.7437 51.6078 54.2417 50.9245 54.9025 50.4261C55.5632 49.9276 56.3569 49.6364 57.1833 49.5892C58.0096 49.542 58.8313 49.7409 59.5445 50.1608C60.2578 50.5807 60.8304 51.2028 61.19 51.9482C61.5496 52.6937 61.68 53.5291 61.5648 54.3487C61.4103 55.4465 60.8265 56.4382 59.9414 57.1058C59.0564 57.7735 57.9425 58.0625 56.8445 57.9095ZM68.035 72.7601C67.2156 72.6449 66.4488 72.2894 65.8314 71.7384C65.2141 71.1875 64.774 70.4658 64.5668 69.6648C64.3596 68.8637 64.3947 68.0192 64.6674 67.238C64.9402 66.4568 65.4385 65.7741 66.0993 65.2761C66.7601 64.7781 67.5537 64.4872 68.3798 64.4403C69.2059 64.3934 70.0274 64.5925 70.7403 65.0124C71.4533 65.4323 72.0257 66.0542 72.3852 66.7995C72.7447 67.5447 72.8752 68.3798 72.7601 69.1992C72.6836 69.7433 72.5008 70.267 72.2219 70.7404C71.9431 71.2138 71.5738 71.6276 71.135 71.9583C70.6962 72.2889 70.1966 72.5299 69.6647 72.6675C69.1328 72.805 68.579 72.8365 68.035 72.7601ZM79.2255 87.6106C78.4061 87.4955 77.6393 87.1399 77.022 86.589C76.4046 86.038 75.9646 85.3164 75.7574 84.5153C75.5502 83.7142 75.5852 82.8697 75.8579 82.0886C76.1307 81.3074 76.629 80.6246 77.2898 80.1266C77.9506 79.6287 78.7442 79.3378 79.5703 79.2909C80.3964 79.2439 81.2179 79.443 81.9309 79.8629C82.6438 80.2829 83.2162 80.9048 83.5757 81.65C83.9352 82.3953 84.0657 83.2304 83.9506 84.0498C83.8741 84.5938 83.6913 85.1175 83.4125 85.5909C83.1336 86.0643 82.7643 86.4782 82.3255 86.8088C81.8868 87.1395 81.3872 87.3805 80.8553 87.518C80.3234 87.6556 79.7696 87.6871 79.2255 87.6106ZM82.8855 61.5648C82.0662 61.4496 81.2993 61.0941 80.682 60.5431C80.0647 59.9922 79.6246 59.2705 79.4174 58.4695C79.2102 57.6684 79.2452 56.8239 79.518 56.0427C79.7908 55.2615 80.2891 54.5788 80.9499 54.0808C81.6107 53.5828 82.4043 53.292 83.2304 53.245C84.0565 53.1981 84.8779 53.3972 85.5909 53.8171C86.3039 54.237 86.8763 54.8589 87.2358 55.6042C87.5953 56.3494 87.7257 57.1845 87.6106 58.0039C87.5342 58.548 87.3513 59.0717 87.0725 59.5451C86.7937 60.0185 86.4243 60.4323 85.9856 60.763C85.5468 61.0936 85.0472 61.3346 84.5153 61.4722C83.9834 61.6098 83.4296 61.6412 82.8855 61.5648Z" fill="#010018" style="fill:#010018;fill:color(display-p3 0.0039 0.0000 0.0941);fill-opacity:1;"/>
</svg>
