<svg width="120" height="120" viewBox="0 0 120 120" fill="none" xmlns="http://www.w3.org/2000/svg">
<path d="M48.8182 98.5001H33.8508L30.7555 71.9745L24 68.4301L26.7799 50.9211C27.1818 48.3939 28.8336 46.285 31.1304 45.4165C33.6333 44.4703 37.4028 43.6196 41.3379 43.6196C43.2969 43.6196 47.2977 43.8323 51.4186 45.3705C53.7526 46.2424 55.482 48.3585 55.8873 50.9211L58.6673 68.4301L51.9118 71.9745L48.8182 98.5001Z" fill="#010018" style="fill:#010018;fill:color(display-p3 0.0039 0.0000 0.0941);fill-opacity:1;"/>
<path fill-rule="evenodd" clip-rule="evenodd" d="M33.0225 30.3152C33.0225 25.7229 36.7453 22 41.3377 22C45.93 22 49.6529 25.7229 49.6529 30.3152C49.6529 34.9076 45.93 38.6304 41.3377 38.6304C36.7453 38.6304 33.0225 34.9076 33.0225 30.3152Z" fill="#010018" style="fill:#010018;fill:color(display-p3 0.0039 0.0000 0.0941);fill-opacity:1;"/>
<path d="M60.3799 83.4522L66.9356 52.5237C68.0359 47.3327 72.6186 43.6196 77.925 43.6196C83.2314 43.6196 87.8139 47.3327 88.9144 52.5237L95.4701 83.4522L87.238 86.1077L85.4087 98.5001H70.4413L68.6119 86.1077L60.3799 83.4522Z" fill="#010018" style="fill:#010018;fill:color(display-p3 0.0039 0.0000 0.0941);fill-opacity:1;"/>
<path fill-rule="evenodd" clip-rule="evenodd" d="M69.6094 30.3152C69.6094 25.7229 73.3323 22 77.9246 22C82.5169 22 86.2398 25.7229 86.2398 30.3152C86.2398 34.9076 82.5169 38.6304 77.9246 38.6304C73.3323 38.6304 69.6094 34.9076 69.6094 30.3152Z" fill="#010018" style="fill:#010018;fill:color(display-p3 0.0039 0.0000 0.0941);fill-opacity:1;"/>
</svg>
