<svg xmlns="http://www.w3.org/2000/svg" width="2518" height="256" fill="none"><defs><linearGradient id="a" x1="1259" x2="1259" y1="0" y2="256" gradientUnits="userSpaceOnUse"><stop stop-color="#6767FF" style="stop-color:#6767ff;stop-color:color(display-p3 .4039 .4039 1);stop-opacity:1"/><stop offset="1" stop-color="#FED300" style="stop-color:#fed300;stop-color:color(display-p3 .9961 .8275 0);stop-opacity:1"/></linearGradient><mask id="b"><g fill="#fff"><path d="M0 0v9.096l2518-4.43V4.43L0 0ZM0 9.66v8.767l2518-4.087v-.586L0 9.66ZM0 19.327v8.432l2518-3.744v-.944L0 19.327ZM0 28.988v8.102l2518-3.408v-1.294L0 28.989ZM0 38.648v7.773l2518-3.065v-1.643L0 38.648ZM0 48.308v7.445l2518-2.73v-1.986L0 48.307ZM0 57.975v7.102l2518-2.38v-2.343L0 57.975ZM0 67.635v6.774l2518-2.044V69.68L0 67.635ZM0 77.302v6.438l2518-1.708v-3.03L0 77.303ZM0 86.963v6.101L2518 91.7v-3.373L0 86.963ZM0 96.63v5.759l2518-1.022v-3.716L0 96.63ZM0 106.297v5.423l2518-.686v-4.058L0 106.297ZM0 115.957v5.087l2518-.343V116.3L0 115.957ZM0 125.624v4.745h2518v-4.745H0ZM0 135.292v4.408l2518 .336v-5.087L0 135.292ZM0 144.959v4.065l2518 .679v-5.423L0 144.959ZM0 154.626v3.723l2518 1.021v-5.766L0 154.626ZM0 164.293v3.38l2518 1.357v-6.101L0 164.293ZM0 173.961v3.036l2518 1.701v-6.438L0 173.961ZM0 183.628v2.686l2518 2.051v-6.774L0 183.628ZM0 193.302v2.337l2518 2.386v-7.109L0 193.302ZM0 202.969v1.994l2518 2.722v-7.438L0 202.969ZM0 212.644v1.643l2518 3.066v-7.781L0 212.644ZM0 222.311v1.293l2518 3.409v-8.11L0 222.311ZM0 231.986v.943l2518 3.744v-8.439L0 231.986ZM0 241.653v.593l2518 4.087v-8.767L0 241.653ZM0 251.327v.243L2518 256v-9.103L0 251.327Z"/></g></mask></defs><path fill="url(#a)" d="M0 0h2518v256H0z" mask="url(#b)"/></svg>