<svg xmlns="http://www.w3.org/2000/svg" fill="none" viewBox="0 0 393 164"><path fill="url(#a)" d="M0 0v5.827l393-2.838v-.151L0 0Z"/><path fill="url(#b)" d="M0 6.189v5.616l393-2.618V8.81L0 6.19Z"/><path fill="url(#c)" d="M0 12.382v5.4l393-2.398v-.604L0 12.382Z"/><path fill="url(#d)" d="M0 18.57v5.19l393-2.183v-.828L0 18.57Z"/><path fill="url(#e)" d="M0 24.759v4.98l393-1.964v-1.053L0 24.76Z"/><path fill="url(#f)" d="M0 30.947v4.77l393-1.749v-1.272L0 30.947Z"/><path fill="url(#g)" d="M0 37.14v4.55l393-1.524v-1.502L0 37.14Z"/><path fill="url(#h)" d="M0 43.329v4.339l393-1.31v-1.72L0 43.328Z"/><path fill="url(#i)" d="M0 49.522v4.124l393-1.094v-1.94L0 49.521Z"/><path fill="url(#j)" d="M0 55.71v3.91l393-.875v-2.16L0 55.71Z"/><path fill="url(#k)" d="M0 61.903v3.69l393-.655v-2.38L0 61.903Z"/><path fill="url(#l)" d="M0 68.097v3.474l393-.44v-2.6L0 68.097Z"/><path fill="url(#m)" d="M0 74.285v3.259l393-.22v-2.82L0 74.286Z"/><path fill="url(#n)" d="M0 80.478v3.04h393v-3.04H0Z"/><path fill="url(#o)" d="M0 86.671v2.824l393 .215v-3.258l-393 .22Z"/><path fill="url(#p)" d="M0 92.864v2.605l393 .435v-3.475L0 92.864Z"/><path fill="url(#q)" d="M0 99.057v2.385l393 .655v-3.694L0 99.057Z"/><path fill="url(#r)" d="M0 105.25v2.165l393 .87v-3.909L0 105.25Z"/><path fill="url(#s)" d="M0 111.444v1.945l393 1.089v-4.124l-393 1.09Z"/><path fill="url(#t)" d="M0 117.637v1.721l393 1.313v-4.339L0 117.637Z"/><path fill="url(#u)" d="M0 123.834v1.497l393 1.529v-4.555L0 123.834Z"/><path fill="url(#v)" d="M0 130.027v1.277l393 1.744v-4.765L0 130.027Z"/><path fill="url(#w)" d="M0 136.225v1.053l393 1.963v-4.984L0 136.225Z"/><path fill="url(#x)" d="M0 142.418v.829l393 2.183v-5.195L0 142.418Z"/><path fill="url(#y)" d="M0 148.616v.604l393 2.398v-5.405L0 148.616Z"/><path fill="url(#z)" d="M0 154.809v.38l393 2.618v-5.616L0 154.809Z"/><path fill="url(#A)" d="M0 161.006v.156L393 164v-5.831L0 161.006Z"/><defs><linearGradient id="a" x1="196.5" x2="196.5" y1="0" y2="164" gradientUnits="userSpaceOnUse"><stop stop-color="#6767FF" style="stop-color:#6767ff;stop-color:color(display-p3 .4039 .4039 1);stop-opacity:1"/><stop offset="1" stop-color="#FED300" style="stop-color:#fed300;stop-color:color(display-p3 .9961 .8275 0);stop-opacity:1"/></linearGradient><linearGradient id="b" x1="196.5" x2="196.5" y1="0" y2="164" gradientUnits="userSpaceOnUse"><stop stop-color="#6767FF" style="stop-color:#6767ff;stop-color:color(display-p3 .4039 .4039 1);stop-opacity:1"/><stop offset="1" stop-color="#FED300" style="stop-color:#fed300;stop-color:color(display-p3 .9961 .8275 0);stop-opacity:1"/></linearGradient><linearGradient id="c" x1="196.5" x2="196.5" y1="0" y2="164" gradientUnits="userSpaceOnUse"><stop stop-color="#6767FF" style="stop-color:#6767ff;stop-color:color(display-p3 .4039 .4039 1);stop-opacity:1"/><stop offset="1" stop-color="#FED300" style="stop-color:#fed300;stop-color:color(display-p3 .9961 .8275 0);stop-opacity:1"/></linearGradient><linearGradient id="d" x1="196.5" x2="196.5" y1="0" y2="164" gradientUnits="userSpaceOnUse"><stop stop-color="#6767FF" style="stop-color:#6767ff;stop-color:color(display-p3 .4039 .4039 1);stop-opacity:1"/><stop offset="1" stop-color="#FED300" style="stop-color:#fed300;stop-color:color(display-p3 .9961 .8275 0);stop-opacity:1"/></linearGradient><linearGradient id="e" x1="196.5" x2="196.5" y1="0" y2="164" gradientUnits="userSpaceOnUse"><stop stop-color="#6767FF" style="stop-color:#6767ff;stop-color:color(display-p3 .4039 .4039 1);stop-opacity:1"/><stop offset="1" stop-color="#FED300" style="stop-color:#fed300;stop-color:color(display-p3 .9961 .8275 0);stop-opacity:1"/></linearGradient><linearGradient id="f" x1="196.5" x2="196.5" y1="0" y2="164" gradientUnits="userSpaceOnUse"><stop stop-color="#6767FF" style="stop-color:#6767ff;stop-color:color(display-p3 .4039 .4039 1);stop-opacity:1"/><stop offset="1" stop-color="#FED300" style="stop-color:#fed300;stop-color:color(display-p3 .9961 .8275 0);stop-opacity:1"/></linearGradient><linearGradient id="g" x1="196.5" x2="196.5" y1="0" y2="164" gradientUnits="userSpaceOnUse"><stop stop-color="#6767FF" style="stop-color:#6767ff;stop-color:color(display-p3 .4039 .4039 1);stop-opacity:1"/><stop offset="1" stop-color="#FED300" style="stop-color:#fed300;stop-color:color(display-p3 .9961 .8275 0);stop-opacity:1"/></linearGradient><linearGradient id="h" x1="196.5" x2="196.5" y1="0" y2="164" gradientUnits="userSpaceOnUse"><stop stop-color="#6767FF" style="stop-color:#6767ff;stop-color:color(display-p3 .4039 .4039 1);stop-opacity:1"/><stop offset="1" stop-color="#FED300" style="stop-color:#fed300;stop-color:color(display-p3 .9961 .8275 0);stop-opacity:1"/></linearGradient><linearGradient id="i" x1="196.5" x2="196.5" y1="0" y2="164" gradientUnits="userSpaceOnUse"><stop stop-color="#6767FF" style="stop-color:#6767ff;stop-color:color(display-p3 .4039 .4039 1);stop-opacity:1"/><stop offset="1" stop-color="#FED300" style="stop-color:#fed300;stop-color:color(display-p3 .9961 .8275 0);stop-opacity:1"/></linearGradient><linearGradient id="j" x1="196.5" x2="196.5" y1="0" y2="164" gradientUnits="userSpaceOnUse"><stop stop-color="#6767FF" style="stop-color:#6767ff;stop-color:color(display-p3 .4039 .4039 1);stop-opacity:1"/><stop offset="1" stop-color="#FED300" style="stop-color:#fed300;stop-color:color(display-p3 .9961 .8275 0);stop-opacity:1"/></linearGradient><linearGradient id="k" x1="196.5" x2="196.5" y1="0" y2="164" gradientUnits="userSpaceOnUse"><stop stop-color="#6767FF" style="stop-color:#6767ff;stop-color:color(display-p3 .4039 .4039 1);stop-opacity:1"/><stop offset="1" stop-color="#FED300" style="stop-color:#fed300;stop-color:color(display-p3 .9961 .8275 0);stop-opacity:1"/></linearGradient><linearGradient id="l" x1="196.5" x2="196.5" y1="0" y2="164" gradientUnits="userSpaceOnUse"><stop stop-color="#6767FF" style="stop-color:#6767ff;stop-color:color(display-p3 .4039 .4039 1);stop-opacity:1"/><stop offset="1" stop-color="#FED300" style="stop-color:#fed300;stop-color:color(display-p3 .9961 .8275 0);stop-opacity:1"/></linearGradient><linearGradient id="m" x1="196.5" x2="196.5" y1="0" y2="164" gradientUnits="userSpaceOnUse"><stop stop-color="#6767FF" style="stop-color:#6767ff;stop-color:color(display-p3 .4039 .4039 1);stop-opacity:1"/><stop offset="1" stop-color="#FED300" style="stop-color:#fed300;stop-color:color(display-p3 .9961 .8275 0);stop-opacity:1"/></linearGradient><linearGradient id="n" x1="196.5" x2="196.5" y1="0" y2="164" gradientUnits="userSpaceOnUse"><stop stop-color="#6767FF" style="stop-color:#6767ff;stop-color:color(display-p3 .4039 .4039 1);stop-opacity:1"/><stop offset="1" stop-color="#FED300" style="stop-color:#fed300;stop-color:color(display-p3 .9961 .8275 0);stop-opacity:1"/></linearGradient><linearGradient id="o" x1="196.5" x2="196.5" y1="0" y2="164" gradientUnits="userSpaceOnUse"><stop stop-color="#6767FF" style="stop-color:#6767ff;stop-color:color(display-p3 .4039 .4039 1);stop-opacity:1"/><stop offset="1" stop-color="#FED300" style="stop-color:#fed300;stop-color:color(display-p3 .9961 .8275 0);stop-opacity:1"/></linearGradient><linearGradient id="p" x1="196.5" x2="196.5" y1="0" y2="164" gradientUnits="userSpaceOnUse"><stop stop-color="#6767FF" style="stop-color:#6767ff;stop-color:color(display-p3 .4039 .4039 1);stop-opacity:1"/><stop offset="1" stop-color="#FED300" style="stop-color:#fed300;stop-color:color(display-p3 .9961 .8275 0);stop-opacity:1"/></linearGradient><linearGradient id="q" x1="196.5" x2="196.5" y1="0" y2="164" gradientUnits="userSpaceOnUse"><stop stop-color="#6767FF" style="stop-color:#6767ff;stop-color:color(display-p3 .4039 .4039 1);stop-opacity:1"/><stop offset="1" stop-color="#FED300" style="stop-color:#fed300;stop-color:color(display-p3 .9961 .8275 0);stop-opacity:1"/></linearGradient><linearGradient id="r" x1="196.5" x2="196.5" y1="0" y2="164" gradientUnits="userSpaceOnUse"><stop stop-color="#6767FF" style="stop-color:#6767ff;stop-color:color(display-p3 .4039 .4039 1);stop-opacity:1"/><stop offset="1" stop-color="#FED300" style="stop-color:#fed300;stop-color:color(display-p3 .9961 .8275 0);stop-opacity:1"/></linearGradient><linearGradient id="s" x1="196.5" x2="196.5" y1="0" y2="164" gradientUnits="userSpaceOnUse"><stop stop-color="#6767FF" style="stop-color:#6767ff;stop-color:color(display-p3 .4039 .4039 1);stop-opacity:1"/><stop offset="1" stop-color="#FED300" style="stop-color:#fed300;stop-color:color(display-p3 .9961 .8275 0);stop-opacity:1"/></linearGradient><linearGradient id="t" x1="196.5" x2="196.5" y1="0" y2="164" gradientUnits="userSpaceOnUse"><stop stop-color="#6767FF" style="stop-color:#6767ff;stop-color:color(display-p3 .4039 .4039 1);stop-opacity:1"/><stop offset="1" stop-color="#FED300" style="stop-color:#fed300;stop-color:color(display-p3 .9961 .8275 0);stop-opacity:1"/></linearGradient><linearGradient id="u" x1="196.5" x2="196.5" y1="0" y2="164" gradientUnits="userSpaceOnUse"><stop stop-color="#6767FF" style="stop-color:#6767ff;stop-color:color(display-p3 .4039 .4039 1);stop-opacity:1"/><stop offset="1" stop-color="#FED300" style="stop-color:#fed300;stop-color:color(display-p3 .9961 .8275 0);stop-opacity:1"/></linearGradient><linearGradient id="v" x1="196.5" x2="196.5" y1="0" y2="164" gradientUnits="userSpaceOnUse"><stop stop-color="#6767FF" style="stop-color:#6767ff;stop-color:color(display-p3 .4039 .4039 1);stop-opacity:1"/><stop offset="1" stop-color="#FED300" style="stop-color:#fed300;stop-color:color(display-p3 .9961 .8275 0);stop-opacity:1"/></linearGradient><linearGradient id="w" x1="196.5" x2="196.5" y1="0" y2="164" gradientUnits="userSpaceOnUse"><stop stop-color="#6767FF" style="stop-color:#6767ff;stop-color:color(display-p3 .4039 .4039 1);stop-opacity:1"/><stop offset="1" stop-color="#FED300" style="stop-color:#fed300;stop-color:color(display-p3 .9961 .8275 0);stop-opacity:1"/></linearGradient><linearGradient id="x" x1="196.5" x2="196.5" y1="0" y2="164" gradientUnits="userSpaceOnUse"><stop stop-color="#6767FF" style="stop-color:#6767ff;stop-color:color(display-p3 .4039 .4039 1);stop-opacity:1"/><stop offset="1" stop-color="#FED300" style="stop-color:#fed300;stop-color:color(display-p3 .9961 .8275 0);stop-opacity:1"/></linearGradient><linearGradient id="y" x1="196.5" x2="196.5" y1="0" y2="164" gradientUnits="userSpaceOnUse"><stop stop-color="#6767FF" style="stop-color:#6767ff;stop-color:color(display-p3 .4039 .4039 1);stop-opacity:1"/><stop offset="1" stop-color="#FED300" style="stop-color:#fed300;stop-color:color(display-p3 .9961 .8275 0);stop-opacity:1"/></linearGradient><linearGradient id="z" x1="196.5" x2="196.5" y1="0" y2="164" gradientUnits="userSpaceOnUse"><stop stop-color="#6767FF" style="stop-color:#6767ff;stop-color:color(display-p3 .4039 .4039 1);stop-opacity:1"/><stop offset="1" stop-color="#FED300" style="stop-color:#fed300;stop-color:color(display-p3 .9961 .8275 0);stop-opacity:1"/></linearGradient><linearGradient id="A" x1="196.5" x2="196.5" y1="0" y2="164" gradientUnits="userSpaceOnUse"><stop stop-color="#6767FF" style="stop-color:#6767ff;stop-color:color(display-p3 .4039 .4039 1);stop-opacity:1"/><stop offset="1" stop-color="#FED300" style="stop-color:#fed300;stop-color:color(display-p3 .9961 .8275 0);stop-opacity:1"/></linearGradient></defs></svg>