<svg width="121" height="120" viewBox="0 0 121 120" fill="none" xmlns="http://www.w3.org/2000/svg">
<path d="M95.0005 81H93.0005V39H95.0005V81Z" fill="#010018" style="fill:#010018;fill:color(display-p3 0.0039 0.0000 0.0941);fill-opacity:1;"/>
<path d="M89.0005 86H85.0005L85.0005 34H89.0005L89.0005 86Z" fill="#010018" style="fill:#010018;fill:color(display-p3 0.0039 0.0000 0.0941);fill-opacity:1;"/>
<path d="M82.0005 91H76.0005L76.0005 29L82.0005 29L82.0005 91Z" fill="#010018" style="fill:#010018;fill:color(display-p3 0.0039 0.0000 0.0941);fill-opacity:1;"/>
<path d="M72.0005 92H64.0005L64.0005 28L72.0005 28L72.0005 92Z" fill="#010018" style="fill:#010018;fill:color(display-p3 0.0039 0.0000 0.0941);fill-opacity:1;"/>
<path d="M59.0005 92H51.0005L51.0005 28L59.0005 28L59.0005 92Z" fill="#010018" style="fill:#010018;fill:color(display-p3 0.0039 0.0000 0.0941);fill-opacity:1;"/>
<path d="M47.0005 91H41.0005L41.0005 29L47.0005 29L47.0005 91Z" fill="#010018" style="fill:#010018;fill:color(display-p3 0.0039 0.0000 0.0941);fill-opacity:1;"/>
<path d="M37.0005 86H33.0005L33.0005 34H37.0005L37.0005 86Z" fill="#010018" style="fill:#010018;fill:color(display-p3 0.0039 0.0000 0.0941);fill-opacity:1;"/>
<path d="M29.0005 81H27.0005L27.0005 39H29.0005L29.0005 81Z" fill="#010018" style="fill:#010018;fill:color(display-p3 0.0039 0.0000 0.0941);fill-opacity:1;"/>
</svg>
