<svg width="120" height="120" viewBox="0 0 120 120" fill="none" xmlns="http://www.w3.org/2000/svg">
<path fill-rule="evenodd" clip-rule="evenodd" d="M48.171 48.171L60.25 22L72.329 48.171L98.4999 60.25L72.329 72.3288L60.25 98.5L48.171 72.3288L22 60.25L48.171 48.171ZM60.25 53.0959C56.2989 53.0959 53.0958 56.2988 53.0958 60.25C53.0958 64.2011 56.2989 67.4041 60.25 67.4041C64.201 67.4041 67.4041 64.2011 67.4041 60.25C67.4041 56.2988 64.201 53.0959 60.25 53.0959Z" fill="#010018" style="fill:#010018;fill:color(display-p3 0.0039 0.0000 0.0941);fill-opacity:1;"/>
<path d="M73.3486 82.9236L88.2438 88.2434L82.924 73.3481L76.3725 76.372L73.3486 82.9236Z" fill="#010018" style="fill:#010018;fill:color(display-p3 0.0039 0.0000 0.0941);fill-opacity:1;"/>
<path d="M82.924 47.1512L88.2438 32.2561L73.3486 37.5758L76.3725 44.1276L82.924 47.1512Z" fill="#010018" style="fill:#010018;fill:color(display-p3 0.0039 0.0000 0.0941);fill-opacity:1;"/>
<path d="M47.1512 37.5758L32.2559 32.2561L37.5756 47.1512L44.1273 44.1276L47.1512 37.5758Z" fill="#010018" style="fill:#010018;fill:color(display-p3 0.0039 0.0000 0.0941);fill-opacity:1;"/>
<path d="M37.5756 73.3481L32.2559 88.2434L47.1512 82.9236L44.1273 76.372L37.5756 73.3481Z" fill="#010018" style="fill:#010018;fill:color(display-p3 0.0039 0.0000 0.0941);fill-opacity:1;"/>
</svg>
