<svg width="121" height="120" viewBox="0 0 121 120" fill="none" xmlns="http://www.w3.org/2000/svg">
<path d="M58.317 81.0864V97H63.317V80.9422C64.3223 80.7965 65.3056 80.5815 66.2619 80.3022L72.3049 95.005L76.9206 93.057L70.8751 78.348C72.222 77.5827 73.4808 76.6772 74.6323 75.6509L86.0416 86.692L89.4948 83.0278L77.9884 71.8928C78.6432 70.9664 79.2292 69.9868 79.739 68.9615L94.3241 74.9418L96.1996 70.2451L81.4613 64.202C81.6559 63.382 81.8055 62.5443 81.9074 61.6917H98V56.625L81.943 56.625C81.7707 54.9868 81.4224 53.4018 80.9175 51.8901L95.4005 45.3366L93.3618 40.7102L78.7803 47.3083C78.1009 46.2014 77.3278 45.1597 76.4724 44.1944L87.3589 32.6428L83.7429 29.1436L72.7277 40.8318C71.9229 40.2605 71.0784 39.7427 70.1992 39.2836L76.0758 24.5666L71.4409 22.6661L65.5195 37.4953C64.7988 37.3126 64.064 37.1661 63.317 37.0578V21H58.317V36.9136C56.8888 37.0365 55.4996 37.2984 54.1628 37.686L48.0851 22.8986L43.4694 24.8466L49.5459 39.6311C48.5329 40.204 47.5695 40.8562 46.6639 41.5793L35.2552 30.5389L31.802 34.2031L43.1126 45.1486C42.463 45.9702 41.8698 46.8395 41.3392 47.7508L26.6755 41.7382L24.8 46.435L39.3081 52.3837C38.8883 53.7457 38.5947 55.1641 38.4411 56.625L23 56.625V61.6917H38.4767C38.6212 62.9013 38.8618 64.0809 39.1906 65.2224L24.8794 71.6982L26.918 76.3245L41.1352 69.8914C41.6488 70.8121 42.2255 71.692 42.8593 72.5249L31.9446 84.1064L35.5606 87.6057L46.3457 76.1617C47.2595 76.9196 48.2349 77.6041 49.2632 78.2062L43.3091 93.1172L47.9441 95.0177L53.8523 80.2215C55.2841 80.6601 56.7778 80.954 58.317 81.0864Z" fill="#010018" style="fill:#010018;fill:color(display-p3 0.0039 0.0000 0.0941);fill-opacity:1;"/>
</svg>
