<svg xmlns="http://www.w3.org/2000/svg" xml:space="preserve" id="Layer_1" x="0" y="0" viewBox="0 0 512 512"><style>.st0{fill:#9eaab2}.st1{fill:#8e979a}.st2{fill:#dbe1e3}.st4{fill:#1b3134}.st6{fill:#51c3f1}.st7{fill:#fff}.st9{fill:#3b3735}</style><path d="M86 227.6v210.3c0 40.8 76.1 73.9 170 73.9s170-33.1 170-73.9V227.6s-7.1 71.8-170 71.8-170-71.8-170-71.8" class="st0"/><ellipse cx="256" cy="227.6" class="st1" rx="170" ry="73.9"/><path d="M86 227.6v210.3c0 40.8 76.1 73.9 170 73.9s170-33.1 170-73.9V227.6s-7.1 71.8-170 71.8-170-71.8-170-71.8" class="st0"/><path d="M403.2 262.7c4.8-3.7 9.5-7.3 13-12.3 2-2.9 3.7-5.9 5.3-9 1.7-3 3.2-6.1 4.5-9.4v206c0 18.9-16.4 36.2-43.3 49.2V275.1c7.3-3.4 14.2-7.6 20.5-12.4M108.8 262.7c-4.8-3.7-9.5-7.3-13-12.3-2-2.9-3.7-5.9-5.3-9-1.7-3-3.2-6.1-4.5-9.4v206c0 18.9 16.4 36.2 43.3 49.2V275.1c-7.2-3.4-14.2-7.6-20.5-12.4" class="st1"/><path d="M256 506.3c-91.6 0-166.2-30.6-169.7-68.9-.1.9-.1 1.9-.1 2.8 0 39.6 76.1 71.7 169.9 71.7S426 479.8 426 440.2c0-1-.1-1.9-.1-2.8-3.7 38.3-78.3 68.9-169.9 68.9" class="st1"/><path d="M256 296.5c-91.6 0-166.2-30.6-169.7-68.9-.1.9-.1 1.9-.1 2.8 0 39.6 76.1 71.7 169.9 71.7S426 270 426 230.4c0-1-.1-1.9-.1-2.8-3.7 38.3-78.3 68.9-169.9 68.9M256 482.8c-91.6 0-166.2-30.6-169.7-68.9-.1.9-.1 1.9-.1 2.8 0 39.6 76.1 71.7 169.9 71.7S426 456.3 426 416.7c0-1-.1-1.9-.1-2.8-3.7 38.3-78.3 68.9-169.9 68.9" class="st2"/><path d="M411.2 223.8c0 6.5-2.8 12.4-8 18.2-10.2 11.6-78 38.4-146.1 38.5-68.8.1-137.9-26.8-148.2-38.5-5.2-5.9-8-11.7-8-18.2 0-32.4 69.5-58.6 155.2-58.6 85.6-.1 155.1 26.2 155.1 58.6" style="fill:#1a2b2f"/><path d="M108.8 153.7c24.5 17.1 86.8 33 147.2 33s126.1-16.5 147.2-33v-10.2S357 173 256 173s-147.2-29.5-147.2-29.5z" class="st4"/><path d="M403.2 236.1s-29.9 42.1-147.2 42.1-147.2-42.1-147.2-42.1v-91.5s42.4 28.9 143.7 28.9c101.4 0 150.7-28.9 150.7-28.9z" style="fill:#213f48"/><path d="M255.9 273.7c-73.9 0-135-21.4-147.1-46.1V242s29.9 40.4 147.1 40.4h.2c117.2 0 147.2-40.4 147.2-40.4v-14.4c-12.3 24.7-73.5 46.1-147.4 46.1" class="st4"/><path d="M256 170c-98.4 0-178.5-30.6-182.3-68.9-.1.9-.2 1.9-.2 2.8 0 39.6 81.7 71.7 182.5 71.7s182.5-32.1 182.5-71.7c0-1-.1-1.9-.2-2.8-3.8 38.3-83.9 68.9-182.3 68.9" class="st1"/><path d="M256 0C155.2 0 73.5 32.1 73.5 71.7V103c0 39.6 81.7 71.7 182.5 71.7s182.5-32.1 182.5-71.7V71.7C438.5 32.1 356.8 0 256 0" class="st0"/><path d="M255.6 24.2c27 0 51.8 3.7 70.7 9.8l27-9.8 6.5 27.8h-81.6l-1-.2 29-10.5c-13.3-4.5-31.1-7.2-50.5-7.2-15.5 0-30.1 1.8-42.1 4.8l-26.8-5.4c18.8-5.9 43-9.3 68.8-9.3M150.1 49.8c.9-4.1 10.8-7.3 22.2-7.3s20.1 3.2 19.6 7.3-10.5 7.5-22.2 7.5c-11.7.1-20.5-3.3-19.6-7.5m106 51.4c-31.8 0-60-5.1-79.4-13l-35.8 13 7.4-33.9h85.4l.4.1-33 12c13.6 5.4 33.1 8.7 54.8 8.7 17.9 0 34.1-2.3 46.8-6l31.2 6.7c-18.9 7.5-46.3 12.4-77.8 12.4m88.6-23.3c-12.3 0-22.7-3.7-23.4-8.2-.6-4.4 8.5-7.9 20.3-7.9 11.9 0 22.3 3.5 23.3 7.9 1.1 4.5-7.9 8.2-20.2 8.2" class="st2"/><path d="M382.7 154.7v-34.8s49.4-15.2 55.8-48.1v31.3c0 20.2-21.4 38.5-55.8 51.6M129.3 154.7v-35.2c-38.9-12.1-54-34.2-55.8-47.8V103c0 20.3 21.4 38.6 55.8 51.7" class="st1"/><path d="M256 137.8c-98.4 0-178.5-30.6-182.3-68.9-.1.9-.2 1.9-.2 2.8 0 39.6 81.7 71.7 182.5 71.7s182.5-32.1 182.5-71.7c0-1-.1-1.9-.2-2.8-3.8 38.3-83.9 68.9-182.3 68.9" class="st2"/><path d="M353.2 222.1c0 14-10.2 25.3-24.2 25.3s-24.2-11.3-24.2-25.3 10.2-25.3 24.2-25.3c14 .1 24.2 11.4 24.2 25.3" class="st4"/><path d="M329 194.9c12.3 0 22.2 10 22.2 22.2 0 12.3-10 22.2-22.2 22.2s-22.2-10-22.2-22.2c-.1-12.3 9.9-22.2 22.2-22.2" class="st6"/><path d="M329 206.4c4 0 7.3 3.2 7.3 7.3 0 4-3.2 7.3-7.3 7.3-4 0-7.3-3.2-7.3-7.3 0-4 3.3-7.3 7.3-7.3" class="st7"/><path d="M206.7 222.1c0 14-10.2 25.3-24.2 25.3s-24.2-11.3-24.2-25.3 10.2-25.3 24.2-25.3c14 .1 24.2 11.4 24.2 25.3" class="st4"/><path d="M182.7 194.9c12.3 0 22.2 10 22.2 22.2 0 12.3-10 22.2-22.2 22.2-12.3 0-22.2-10-22.2-22.2-.1-12.3 9.9-22.2 22.2-22.2" class="st6"/><path d="M182.5 206.4c4 0 7.3 3.2 7.3 7.3 0 4-3.2 7.3-7.3 7.3-4 0-7.3-3.2-7.3-7.3 0-4 3.3-7.3 7.3-7.3" class="st7"/><path d="M257.1 466.7c-7.6 0-15.2-.4-27.2-1.4-5.6-.5-10.2-5.5-10.2-11.2V340c0-5.3 4-9.3 9.4-9.3h.9c12 1 19.6 1.4 27.1 1.4 7.6 0 15.2-.4 27.1-1.4h.9c5.3 0 9.4 4 9.4 9.3v114c0 5.7-4.6 10.7-10.2 11.2-12 1.1-19.7 1.5-27.2 1.5M229 336.4c-2.2 0-3.7 1.5-3.7 3.6v114c0 2.7 2.3 5.3 5 5.5 11.8 1 19.3 1.4 26.7 1.4s14.9-.4 26.7-1.4c2.7-.2 5-2.8 5-5.5V340c0-2.3-1.7-3.8-4.1-3.6-12.1 1-19.9 1.4-27.6 1.4s-15.5-.4-27.6-1.4z" class="st2"/><path d="M396.1 331.5c-13.5 8.8-38.7 25.1-88.9 36.4 7.2 38.3 7.2 38.3 16.7 88.4 17.4-5.2 53.5-15.9 82.8-40.1-3.4-28-6.1-49.8-10.6-84.7" style="fill:#f5dd3e"/><path d="M363.4 432.2c-9.9 5.5-16.7-2.5-16.7-2.5l5.8-5.6s3.3 4.2 8.6.6c2.5-1.7.9-10.1.9-10.1l-4.8-23.1 7.6-3.2s4.6 26.7 5.1 29.3c.9 5.2 1.7 10.1-6.5 14.6M383.9 420.6c-5.6.8-8.7-3.3-8.7-3.3l5.1-6.2s1.9 2.1 4.6 1.7c2.3-.3 4.9-1.8 5.8-4.7 1.6-4.9.1-6.5-4.8-6-4.9.6-11.1 1.3-12.2-8.5-1-8.6 6.6-15.2 11.7-16.1s7.9 2.7 7.9 2.7l-5.1 6.1s-3.4-1.5-5.4.3c-1.8 1.6-2.5 3.8-1.8 5.4.6 1.4 2.5 2.1 5.4 1.8 3-.2 7.9-1.9 10.9 4.1 3.3 6.9-.3 20.7-13.4 22.7" class="st9"/></svg>