<svg xmlns="http://www.w3.org/2000/svg" viewBox="0 0 2000 1500"><g fill="none" fill-rule="nonzero"><path fill="#f7df1e" d="M209 260h800v800H209z"/><path fill="#000" d="m419.35 928.538 61.219-37.05c11.812 20.94 22.556 38.659 48.328 38.659 24.703 0 40.281-9.663 40.281-47.25V627.278h75.178V883.96c0 77.866-45.644 113.31-112.237 113.31-60.14 0-95.05-31.147-112.772-68.738m265.844-8.05 61.212-35.44c16.116 26.315 37.06 45.646 74.11 45.646 31.153 0 51.015-15.575 51.015-37.056 0-25.775-20.406-34.906-54.775-49.937l-18.79-8.063c-54.241-23.084-90.22-52.084-90.22-113.303 0-56.387 42.96-99.35 110.088-99.35 47.794 0 82.163 16.65 106.863 60.147l-58.538 37.594c-12.89-23.09-26.847-32.219-48.328-32.219-22.019 0-35.981 13.962-35.981 32.219 0 22.553 13.962 31.687 46.181 45.65l18.794 8.053c63.906 27.39 99.884 55.312 99.884 118.137 0 67.67-53.162 104.72-124.584 104.72-69.81 0-114.919-33.295-136.934-76.795"/><g fill="#000"><path d="M1049.902 999h154.55c79.804 0 128.136-50.018 128.136-118.02 0-47.77-25.29-82.614-77.556-94.978 33.158-10.678 53.952-34.844 53.952-70.25 0-53.952-39.902-98.912-111.276-98.912h-147.806zm78.68-241.098v-71.936h64.63c24.166 0 38.216 14.05 38.216 35.968s-16.86 35.968-42.15 35.968zm0 171.972V824.78h68.002c35.968 0 56.762 21.356 56.762 52.266 0 31.472-20.232 52.828-52.266 52.828zM1423.632 719.686c25.852 0 47.77-19.67 47.77-47.77 0-27.538-21.918-47.208-47.77-47.208s-48.332 19.67-48.332 47.208c0 28.1 22.48 47.77 48.332 47.77M1385.416 999h75.87V759.588h-75.87zM1523.668 999h75.87V870.864c0-30.348 17.984-47.208 48.332-47.208 26.976 0 39.902 15.174 39.902 42.15V999h75.87V860.748c0-68.002-37.654-106.218-89.92-106.218-33.158 0-61.258 15.736-75.87 44.398l1.686-39.34h-75.87z"/></g><g fill="#828282"><path d="M217.154 1099.186V1207h21.442v-40.921q0-11.93 3.926-17.139 3.925-5.21 12.684-5.209 7.701 0 10.721 4.756t3.02 14.421V1207h21.442v-48.018q0-7.248-1.284-13.213-1.283-5.964-4.454-10.117-3.17-4.152-8.683-6.493-5.511-2.34-14.118-2.34-6.04 0-12.382 3.095t-10.419 9.891h-.453v-40.619zM305.791 1152.942q.453-7.55 3.775-12.533a25.7 25.7 0 0 1 8.456-8.003q5.134-3.02 11.551-4.303a65.7 65.7 0 0 1 12.911-1.284q5.889 0 11.929.83t11.023 3.247 8.154 6.72 3.171 11.4v40.619q0 5.285.604 10.117.604 4.831 2.114 7.248h-21.744a31 31 0 0 1-.981-3.7 32 32 0 0 1-.529-3.85q-5.135 5.285-12.08 7.399a48.5 48.5 0 0 1-14.194 2.114q-5.587 0-10.419-1.359t-8.456-4.228q-3.624-2.87-5.663-7.248-2.038-4.38-2.038-10.419 0-6.645 2.34-10.948t6.04-6.87 8.457-3.85a90 90 0 0 1 9.588-2.039q4.832-.755 9.513-1.208 4.68-.453 8.305-1.359t5.738-2.642q2.115-1.737 1.963-5.059 0-3.472-1.132-5.512-1.133-2.039-3.02-3.17-1.889-1.133-4.38-1.51-2.49-.378-5.36-.378-6.342 0-9.966 2.718t-4.228 9.06zm49.528 15.855q-1.36 1.207-3.397 1.887a35 35 0 0 1-4.38 1.133q-2.34.453-4.907.755a90 90 0 0 0-5.134.755q-2.416.453-4.756 1.208t-4.077 2.038a9.7 9.7 0 0 0-2.794 3.247q-1.057 1.964-1.057 4.983 0 2.869 1.057 4.832t2.869 3.095 4.228 1.586 4.983.453q6.342 0 9.815-2.114 3.473-2.115 5.134-5.059t2.038-5.964.378-4.832zM446.523 1156.415h20.989q-.453-7.55-3.624-13.062-3.17-5.511-8.23-9.21-5.058-3.7-11.476-5.512-6.417-1.812-13.363-1.812-9.513 0-16.912 3.171t-12.533 8.833-7.777 13.44-2.642 16.836q0 8.759 2.869 16.082t8.003 12.608q5.134 5.284 12.457 8.23 7.324 2.944 16.082 2.944 15.553 0 25.519-8.154t12.08-23.707h-20.687q-1.057 7.248-5.21 11.551-4.152 4.304-11.853 4.304-4.982 0-8.456-2.265t-5.512-5.814-2.944-7.927a42.4 42.4 0 0 1-.906-8.607q0-4.38.906-8.834t3.096-8.154 5.662-6.04 8.607-2.34q13.74 0 15.855 13.439M482.008 1099.186V1207h21.442v-26.878l8.305-8.003L533.197 1207h25.972l-32.767-49.377 29.445-28.69h-25.368l-27.029 28.086v-57.833zM567.625 1183.746V1207h23.707v-23.254zM651.279 1099.186V1207h21.442v-107.814zM742.181 1159.586H707.3q.15-2.265.982-5.134.83-2.87 2.868-5.436 2.04-2.567 5.437-4.304 3.396-1.736 8.531-1.736 7.852 0 11.702 4.228t5.361 12.382m-34.881 13.59h56.323q.605-9.06-1.51-17.365-2.115-8.306-6.87-14.798-4.757-6.493-12.156-10.343-7.4-3.851-17.365-3.851-8.91 0-16.232 3.171-7.325 3.171-12.609 8.682-5.284 5.513-8.154 13.062-2.87 7.55-2.869 16.308 0 9.06 2.793 16.61t7.928 12.986 12.533 8.38 16.61 2.945q13.289 0 22.65-6.04 9.362-6.04 13.892-20.083h-18.875q-1.057 3.624-5.738 6.87-4.68 3.247-11.174 3.247-9.06 0-13.892-4.681-4.832-4.68-5.285-15.1M775.401 1152.942q.453-7.55 3.775-12.533a25.7 25.7 0 0 1 8.456-8.003q5.134-3.02 11.552-4.303a65.7 65.7 0 0 1 12.91-1.284q5.889 0 11.929.83t11.023 3.247 8.154 6.72 3.171 11.4v40.619q0 5.285.604 10.117.604 4.831 2.114 7.248h-21.744a31 31 0 0 1-.981-3.7 32 32 0 0 1-.529-3.85q-5.135 5.285-12.08 7.399a48.5 48.5 0 0 1-14.194 2.114q-5.588 0-10.419-1.359t-8.456-4.228q-3.624-2.87-5.663-7.248-2.038-4.38-2.038-10.419 0-6.645 2.34-10.948t6.04-6.87 8.457-3.85a90 90 0 0 1 9.588-2.039q4.832-.755 9.513-1.208 4.68-.453 8.305-1.359t5.738-2.642q2.115-1.737 1.963-5.059 0-3.472-1.132-5.512-1.133-2.039-3.02-3.17-1.889-1.133-4.38-1.51-2.49-.378-5.36-.378-6.342 0-9.966 2.718t-4.228 9.06zm49.528 15.855q-1.359 1.207-3.397 1.887a35 35 0 0 1-4.38 1.133q-2.34.453-4.907.755a90 90 0 0 0-5.134.755q-2.416.453-4.756 1.208t-4.077 2.038a9.7 9.7 0 0 0-2.794 3.247q-1.057 1.964-1.057 4.983 0 2.869 1.057 4.832t2.869 3.095 4.228 1.586 4.983.453q6.342 0 9.815-2.114 3.473-2.115 5.134-5.059t2.038-5.964.378-4.832zM862.981 1128.933V1207h21.442v-35.183q0-5.285 1.057-9.815t3.548-7.928 6.569-5.36 9.966-1.963q1.964 0 4.077.226 2.114.227 3.624.529v-19.932q-2.567-.755-4.681-.755-4.077 0-7.852 1.208a28.8 28.8 0 0 0-7.097 3.397 26.7 26.7 0 0 0-5.889 5.285 26.4 26.4 0 0 0-4.077 6.72h-.302v-14.496zM924.438 1128.933V1207h21.442v-40.921q0-11.93 3.926-17.139 3.926-5.21 12.684-5.209 7.701 0 10.721 4.756t3.02 14.421V1207h21.442v-48.018q0-7.248-1.284-13.213-1.283-5.964-4.454-10.117-3.17-4.152-8.683-6.493-5.511-2.34-14.118-2.34-6.796 0-13.288 3.095-6.493 3.096-10.57 9.891h-.453v-10.872zM1014.887 1183.746V1207h23.707v-23.254zM1102.618 1143.278V1207h21.442v-63.722h14.798v-14.345h-14.798v-4.681q0-4.832 1.888-6.87 1.887-2.04 6.266-2.039 4.077 0 7.852.453v-16.006a241 241 0 0 1-5.587-.378 73 73 0 0 0-5.738-.226q-13.137 0-19.63 6.644t-6.493 17.063v6.04h-12.835v14.345zm49.226-14.345V1207h21.442v-78.067zm21.442-12.08v-17.667h-21.442v17.667zM1210.13 1165.928 1182.044 1207h24.009l16.308-24.613 16.308 24.613h24.462l-28.841-41.525 25.67-36.542h-23.707l-13.59 20.385-13.741-20.385h-24.462zM1272.191 1183.746V1207h23.707v-23.254zM1382.421 1128.933v-23.405h-21.442v23.405h-12.986v14.345h12.986v46.055q0 5.889 1.963 9.513t5.36 5.587q3.399 1.964 7.853 2.642 4.455.68 9.437.68 3.17 0 6.493-.151 3.322-.15 6.04-.604v-16.61a30 30 0 0 1-3.171.453q-1.66.15-3.473.151-5.436 0-7.248-1.812t-1.812-7.248v-38.656h15.704v-14.345zM1460.941 1159.586h-34.881q.15-2.265.982-5.134.83-2.87 2.869-5.436 2.038-2.567 5.436-4.304 3.396-1.736 8.531-1.736 7.852 0 11.703 4.228t5.36 12.382m-34.881 13.59h56.323q.605-9.06-1.51-17.365-2.115-8.306-6.87-14.798-4.757-6.493-12.156-10.343-7.4-3.851-17.365-3.851-8.91 0-16.233 3.171t-12.608 8.682q-5.284 5.513-8.154 13.062-2.87 7.55-2.869 16.308 0 9.06 2.793 16.61t7.928 12.986 12.533 8.38 16.61 2.945q13.289 0 22.65-6.04 9.362-6.04 13.892-20.083h-18.875q-1.057 3.624-5.738 6.87-4.68 3.247-11.174 3.247-9.06 0-13.892-4.681-4.832-4.68-5.285-15.1M1494.161 1152.942q.453-7.55 3.775-12.533a25.7 25.7 0 0 1 8.456-8.003q5.134-3.02 11.552-4.303a65.7 65.7 0 0 1 12.91-1.284q5.889 0 11.929.83t11.023 3.247 8.154 6.72 3.171 11.4v40.619q0 5.285.604 10.117.604 4.831 2.114 7.248h-21.744a31 31 0 0 1-.982-3.7 32 32 0 0 1-.528-3.85q-5.135 5.285-12.08 7.399a48.5 48.5 0 0 1-14.194 2.114q-5.587 0-10.419-1.359t-8.456-4.228q-3.624-2.87-5.662-7.248-2.04-4.38-2.039-10.419 0-6.645 2.34-10.948t6.04-6.87 8.457-3.85a90 90 0 0 1 9.588-2.039q4.832-.755 9.513-1.208 4.68-.453 8.305-1.359t5.738-2.642q2.115-1.737 1.963-5.059 0-3.472-1.133-5.512-1.132-2.039-3.02-3.17-1.887-1.133-4.379-1.51-2.49-.378-5.36-.378-6.342 0-9.966 2.718t-4.228 9.06zm49.528 15.855q-1.36 1.207-3.398 1.887a35 35 0 0 1-4.379 1.133q-2.34.453-4.907.755a90 90 0 0 0-5.134.755q-2.415.453-4.757 1.208-2.34.755-4.077 2.038a9.7 9.7 0 0 0-2.793 3.247q-1.057 1.964-1.057 4.983 0 2.869 1.057 4.832t2.869 3.095 4.228 1.586 4.983.453q6.342 0 9.815-2.114 3.473-2.115 5.134-5.059 1.66-2.944 2.039-5.964.377-3.02.377-4.832zM1634.893 1156.415h20.989q-.453-7.55-3.624-13.062-3.17-5.511-8.23-9.21-5.058-3.7-11.476-5.512-6.417-1.812-13.363-1.812-9.514 0-16.912 3.171-7.399 3.17-12.533 8.833t-7.776 13.44-2.643 16.836q0 8.759 2.869 16.082t8.003 12.608q5.134 5.284 12.458 8.23 7.323 2.944 16.081 2.944 15.553 0 25.519-8.154t12.08-23.707h-20.687q-1.057 7.248-5.21 11.551-4.152 4.304-11.853 4.304-4.982 0-8.456-2.265t-5.511-5.814q-2.04-3.548-2.945-7.927a42.4 42.4 0 0 1-.906-8.607q0-4.38.906-8.834t3.095-8.154 5.663-6.04 8.607-2.34q13.74 0 15.855 13.439M1668.415 1099.186V1207h21.442v-40.921q0-11.93 3.926-17.139 3.926-5.21 12.684-5.209 7.701 0 10.721 4.756t3.02 14.421V1207h21.442v-48.018q0-7.248-1.284-13.213-1.283-5.964-4.454-10.117-3.17-4.152-8.683-6.493-5.511-2.34-14.118-2.34-6.04 0-12.382 3.095t-10.419 9.891h-.453v-40.619zM1758.864 1183.746V1207h23.707v-23.254z"/></g></g></svg>