<svg xmlns="http://www.w3.org/2000/svg" fill="none" viewBox="0 0 614 97"><path fill="#182229" d="M187.135 39.204c1.557-2.377 3.508-4.245 5.835-5.573 2.344-1.393 4.933-2.098 7.785-2.098v14.03H197.1c-3.327 0-5.802.721-7.473 2.163-1.656 1.393-2.492 3.868-2.492 7.441v20.077h-13.308V32.01h13.308v7.211-.016ZM252.251 31.992 227.765 89.34h-14.161l7.048-15.586-17.668-41.777h14.865l10.047 27.043 9.948-27.043h14.39l.017.016ZM270.837 75.85c-3.786 0-7.163-.639-10.113-1.933-2.95-1.295-5.294-3.049-6.998-5.278-1.705-2.278-2.672-4.802-2.885-7.588h13.161c.148 1.491.852 2.704 2.098 3.638 1.246.935 2.786 1.394 4.589 1.394 1.655 0 2.934-.312 3.819-.935.934-.672 1.393-1.524 1.393-2.556 0-1.246-.639-2.148-1.95-2.705-1.295-.623-3.393-1.294-6.31-2.016-3.114-.72-5.704-1.475-7.785-2.245-2.082-.82-3.868-2.098-5.376-3.802-1.508-1.754-2.262-4.114-2.262-7.048 0-2.475.672-4.72 2.032-6.736 1.394-2.065 3.426-3.688 6.065-4.884 2.704-1.18 5.883-1.787 9.571-1.787 5.441 0 9.735 1.345 12.849 4.032 3.164 2.688 4.983 6.245 5.442 10.703h-12.292c-.214-1.492-.885-2.688-2.016-3.573-1.082-.885-2.541-1.311-4.36-1.311-1.557 0-2.753.311-3.573.934-.836.573-1.245 1.36-1.245 2.41 0 1.245.655 2.163 1.95 2.785 1.344.623 3.425 1.246 6.228 1.852 3.212.82 5.835 1.656 7.85 2.475 2.033.77 3.786 2.065 5.294 3.868 1.557 1.754 2.36 4.13 2.409 7.13 0 2.54-.721 4.802-2.179 6.818-1.393 1.966-3.458 3.507-6.146 4.654-2.639 1.131-5.737 1.705-9.26 1.705ZM318.432 64.001v11.227h-6.769c-4.819 0-8.588-1.164-11.276-3.491-2.704-2.377-4.048-6.228-4.048-11.555V42.973h-5.294V31.976h5.294v-6.998l13.259-3.54h.065v10.538h8.72v10.997h-8.72V60.33c0 1.278.312 2.212.934 2.786.623.574 1.656.852 3.115.852h4.752l-.032.033ZM386.53 18.012V75.36h-13.308v-53.79l13.308-3.557ZM170.582 75.228h-16.258l-13.587-17.783-4.77 6.015v11.768h-13.308V20.83h13.308v23.863l18.209-23.863h15.636l-21.176 26.666 21.946 27.73ZM320.857 53.544c0-4.441.836-8.342 2.492-11.702 1.704-3.36 4.015-5.949 6.932-7.752 2.901-1.803 6.146-2.704 9.736-2.704 3.065 0 5.736.623 8.014 1.852 2.344 1.245 4.13 2.868 5.376 4.884v-6.13h13.308v43.236h-13.308v-6.13c-1.295 2.016-3.114 3.639-5.441 4.884-2.279 1.246-4.95 1.852-8.015 1.852-3.524 0-6.736-.901-9.653-2.704-2.901-1.852-5.212-4.474-6.933-7.834-1.655-3.41-2.491-7.343-2.491-11.784l-.017.032Zm32.533.083c0-3.311-.934-5.917-2.802-7.835-1.819-1.917-4.048-2.868-6.687-2.868-2.639 0-5.146.95-7.015 2.868-1.819 1.852-2.72 4.442-2.72 7.752 0 3.311.901 5.95 2.72 7.9 1.869 1.918 4.376 2.868 7.015 2.868 2.639 0 4.884-.95 6.687-2.868 1.868-1.917 2.802-4.523 2.802-7.834v.017ZM95.469 20.684 47.726 32.828.016 20.684 22.421 0h50.66l22.388 20.684ZM95.502 30.5 52.528 96.076V41.433L95.502 30.5ZM42.973 41.433v54.642L0 30.501l42.973 10.932ZM433.879 0h-3.196v96.075h3.196V0ZM478.328 16.488a7.692 7.692 0 0 1 2.901-2.901c1.229-.688 2.589-1.033 4.113-1.033 1.77 0 3.327.46 4.671 1.36 1.344.902 2.262 2.18 2.803 3.787h-3.671c-.361-.754-.885-1.328-1.541-1.705-.655-.377-1.426-.574-2.294-.574-.935 0-1.754.214-2.475.656-.721.426-1.279 1.049-1.688 1.836-.41.786-.607 1.72-.607 2.786 0 1.065.197 1.967.607 2.77.409.803.967 1.41 1.688 1.852.721.426 1.54.655 2.475.655.868 0 1.622-.196 2.294-.573.672-.377 1.18-.967 1.541-1.721h3.671c-.524 1.622-1.459 2.884-2.786 3.786-1.328.901-2.885 1.36-4.688 1.36-1.524 0-2.884-.344-4.113-1.032-1.23-.689-2.18-1.656-2.901-2.885-.705-1.23-1.066-2.622-1.066-4.196 0-1.573.361-2.966 1.066-4.195v-.033ZM502.486 26.141h5.244v2.524h-8.424V12.767h3.196v13.374h-.016ZM516.794 27.78a7.997 7.997 0 0 1-2.967-2.9c-.721-1.23-1.098-2.64-1.098-4.196 0-1.557.361-2.934 1.098-4.18.738-1.229 1.721-2.212 2.967-2.9 1.245-.705 2.606-1.05 4.097-1.05 1.492 0 2.868.345 4.114 1.05a7.909 7.909 0 0 1 2.934 2.9c.721 1.246 1.081 2.639 1.081 4.18 0 1.54-.36 2.966-1.081 4.195a7.604 7.604 0 0 1-2.95 2.901 8.33 8.33 0 0 1-4.098 1.05c-1.491 0-2.852-.345-4.097-1.05Zm6.621-2.442c.721-.426 1.295-1.049 1.705-1.852.409-.803.623-1.737.623-2.802 0-1.066-.214-2-.623-2.787a4.409 4.409 0 0 0-1.705-1.835c-.737-.426-1.573-.64-2.524-.64-.95 0-1.803.214-2.54.64a4.338 4.338 0 0 0-1.721 1.835c-.41.803-.623 1.721-.623 2.787 0 1.065.197 2 .623 2.802.426.803.983 1.426 1.721 1.852.737.426 1.59.656 2.54.656.951 0 1.803-.213 2.524-.656ZM538.297 12.767v9.834c0 1.082.279 1.901.836 2.475.557.574 1.344.852 2.376.852 1.033 0 1.836-.278 2.393-.852.557-.574.836-1.393.836-2.475v-9.834h3.212v9.818c0 1.344-.295 2.49-.885 3.425-.59.934-1.36 1.64-2.343 2.114-.984.476-2.066.705-3.262.705-1.196 0-2.262-.23-3.229-.705-.967-.475-1.721-1.18-2.294-2.114-.557-.934-.836-2.081-.836-3.425v-9.818h3.196ZM564.766 13.75c1.262.656 2.245 1.59 2.934 2.787.688 1.213 1.032 2.606 1.032 4.196 0 1.59-.344 2.983-1.032 4.179-.689 1.197-1.672 2.114-2.934 2.77-1.262.655-2.737.983-4.409.983h-5.556V12.767h5.556c1.672 0 3.147.328 4.409.984Zm-.656 10.85c.918-.917 1.361-2.196 1.361-3.85 0-1.656-.459-2.951-1.361-3.885-.917-.934-2.196-1.393-3.868-1.393h-2.261v10.505h2.261c1.672 0 2.967-.459 3.868-1.36v-.016ZM491.243 40.105v15.898h-3.196v-6.769h-6.818v6.769h-3.196V40.105h3.196v6.54h6.818v-6.54h3.196ZM501.421 55.118a7.997 7.997 0 0 1-2.967-2.901c-.721-1.23-1.098-2.639-1.098-4.196s.36-2.934 1.098-4.18c.738-1.228 1.721-2.212 2.967-2.9 1.245-.705 2.605-1.049 4.097-1.049 1.491 0 2.868.344 4.114 1.049a7.906 7.906 0 0 1 2.933 2.9c.721 1.246 1.082 2.64 1.082 4.18 0 1.54-.361 2.967-1.082 4.196a7.598 7.598 0 0 1-2.95 2.9 8.326 8.326 0 0 1-4.097 1.05c-1.492 0-2.852-.344-4.097-1.05Zm6.621-2.442c.721-.426 1.295-1.05 1.704-1.852.41-.803.623-1.737.623-2.803 0-1.065-.213-2-.623-2.786a4.4 4.4 0 0 0-1.704-1.836c-.738-.426-1.574-.639-2.524-.639-.951 0-1.803.213-2.54.64a4.331 4.331 0 0 0-1.721 1.835c-.41.803-.623 1.72-.623 2.786s.196 2 .623 2.803c.426.803.983 1.426 1.721 1.852.737.426 1.589.655 2.54.655.95 0 1.803-.213 2.524-.655ZM522.268 55.593a5.054 5.054 0 0 1-2.114-1.639c-.525-.705-.787-1.557-.803-2.524h3.409c.049.656.278 1.164.688 1.557.41.394.983.574 1.721.574.737 0 1.327-.18 1.754-.541.426-.36.639-.82.639-1.393 0-.475-.148-.852-.426-1.164-.295-.311-.656-.54-1.082-.72-.426-.181-1.033-.361-1.787-.575-1.032-.31-1.868-.606-2.524-.9a4.33 4.33 0 0 1-1.655-1.345c-.459-.606-.688-1.41-.688-2.41 0-.933.229-1.77.705-2.457.475-.705 1.13-1.23 1.983-1.607.852-.377 1.819-.557 2.917-.557 1.639 0 2.966.393 3.999 1.197 1.016.803 1.59 1.917 1.705 3.343h-3.508c-.033-.54-.262-1-.688-1.36-.426-.36-1-.541-1.721-.541-.623 0-1.115.164-1.491.475-.377.312-.558.787-.558 1.393 0 .426.148.77.426 1.066.279.294.623.508 1.049.688.41.18 1 .377 1.77.606 1.033.312 1.869.607 2.524.918a4.627 4.627 0 0 1 1.688 1.36c.476.607.705 1.41.705 2.393 0 .852-.213 1.64-.655 2.377-.443.737-1.082 1.31-1.934 1.737-.853.426-1.852.656-3.032.656-1.115 0-2.115-.197-3-.574l-.016-.033ZM548.229 40.105v2.573H544v13.325h-3.196V42.678h-4.244v-2.573h11.669ZM557.505 40.105v15.898h-3.196V40.105h3.196ZM578.009 56.003h-3.196l-7.228-10.916v10.916h-3.196v-15.93h3.196l7.228 10.931V40.072h3.196v15.93ZM595.988 44.89a3.659 3.659 0 0 0-1.508-1.523c-.639-.345-1.377-.525-2.229-.525-.934 0-1.77.213-2.507.64-.738.425-1.295 1.032-1.705 1.819-.41.786-.623 1.704-.623 2.737 0 1.032.213 1.983.623 2.786.41.787 1 1.393 1.737 1.82.738.425 1.606.638 2.59.638 1.213 0 2.212-.327 2.983-.967.77-.639 1.278-1.54 1.524-2.704h-5.474v-2.442h8.604v2.786c-.213 1.115-.672 2.13-1.36 3.081a7.583 7.583 0 0 1-2.704 2.262c-1.098.574-2.328.852-3.704.852-1.541 0-2.918-.344-4.163-1.032a7.48 7.48 0 0 1-2.918-2.885c-.704-1.229-1.065-2.622-1.065-4.195 0-1.574.361-2.967 1.065-4.196a7.632 7.632 0 0 1 2.918-2.901c1.229-.688 2.622-1.033 4.13-1.033 1.786 0 3.343.443 4.671 1.312 1.328.868 2.229 2.098 2.737 3.687h-3.671l.049-.016ZM495.389 67.443V83.34h-3.196V72.999l-4.261 10.342h-2.409l-4.278-10.342V83.34h-3.196V67.443h3.622l5.065 11.817 5.064-11.817h3.606-.017ZM505.715 80.325l-1.049 3.032h-3.344l5.72-15.93h3.721l5.719 15.93h-3.376l-1.049-3.032h-6.342Zm5.457-2.557-2.294-6.654-2.295 6.654h4.606-.017ZM535.953 83.34h-3.196l-7.228-10.915v10.916h-3.195V67.41h3.195l7.228 10.932V67.41h3.196v15.93ZM546.279 80.325l-1.049 3.032h-3.344l5.72-15.93h3.721l5.719 15.93h-3.376l-1.049-3.032h-6.342Zm5.457-2.557-2.294-6.654-2.295 6.654h4.606-.017ZM573.993 72.228a3.648 3.648 0 0 0-1.508-1.524c-.639-.344-1.376-.524-2.229-.524-.934 0-1.77.213-2.507.639-.738.426-1.295 1.033-1.705 1.82-.409.786-.622 1.704-.622 2.736 0 1.033.213 1.984.622 2.787.41.786 1 1.393 1.738 1.819.737.426 1.606.639 2.589.639 1.213 0 2.213-.328 2.983-.967.77-.64 1.278-1.54 1.524-2.704h-5.474v-2.442h8.605v2.786c-.213 1.114-.672 2.13-1.361 3.081a7.574 7.574 0 0 1-2.704 2.262c-1.098.574-2.327.852-3.704.852-1.541 0-2.917-.344-4.163-1.032a7.477 7.477 0 0 1-2.917-2.885c-.705-1.23-1.066-2.622-1.066-4.196 0-1.573.361-2.966 1.066-4.195a7.63 7.63 0 0 1 2.917-2.901c1.229-.689 2.622-1.033 4.13-1.033 1.787 0 3.344.443 4.671 1.311 1.328.869 2.229 2.098 2.737 3.688h-3.671l.049-.017ZM587.367 73.999h5.359v2.524h-5.359v4.212h6.031v2.59h-9.227V67.393h9.227v2.59h-6.031v4.015ZM610.034 68.426c1.262.656 2.245 1.59 2.933 2.786.689 1.213 1.033 2.606 1.033 4.196 0 1.59-.344 2.983-1.033 4.18-.688 1.196-1.671 2.114-2.933 2.77-1.262.655-2.737.983-4.409.983h-5.556V67.443h5.556c1.672 0 3.147.328 4.409.983Zm-.656 10.85c.918-.918 1.361-2.196 1.361-3.852 0-1.655-.459-2.95-1.361-3.884-.918-.934-2.196-1.393-3.868-1.393h-2.261v10.506h2.261c1.672 0 2.967-.46 3.868-1.36v-.017Z"/></svg>