<svg xmlns="http://www.w3.org/2000/svg" xml:space="preserve" style="fill-rule:evenodd;clip-rule:evenodd;stroke-linejoin:round;stroke-miterlimit:2" viewBox="0 0 4500 2509"><path d="M0 36.894q.002-22.37-6.714-41.535-6.707-19.155-19.297-33.144-12.588-13.98-30.345-21.817c-11.844-5.217-25.13-7.833-39.861-7.833s-28.064 2.616-39.994 7.833c-11.938 5.224-22.098 12.497-30.491 21.817q-12.588 13.989-19.297 33.144-6.716 19.166-6.714 41.535-.002 22.378 6.714 41.539 6.709 19.159 19.297 33.003c8.393 9.232 18.553 16.459 30.491 21.678 11.93 5.217 25.263 7.833 39.994 7.833s28.017-2.616 39.861-7.833q17.757-7.83 30.345-21.678 12.59-13.844 19.297-33.003Q.002 59.273 0 36.894m-40.201-.052q0 13.657-3.914 25.351-3.91 11.694-11.244 20.144-7.34 8.454-17.687 13.231c-6.902 3.183-14.645 4.78-23.228 4.78-8.586 0-16.357-1.597-23.309-4.78q-10.433-4.776-17.769-13.231-7.336-8.45-11.246-20.144-3.912-11.694-3.912-25.351 0-13.655 3.912-25.352 3.91-11.693 11.246-20.228t17.769-13.318c6.952-3.183 14.723-4.779 23.309-4.779 8.583 0 16.326 1.596 23.228 4.779q10.347 4.783 17.687 13.318 7.334 8.535 11.244 20.228 3.914 11.697 3.914 25.352m-321.997 99.628h147.09V95.916h-106.534v-22.2c18.492-5.386 37.415-14.008 56.413-25.872l17.252-10.775-21.55-34.504-17.252 10.775c-12.447 7.773-24.055 13.515-34.863 17.639v-53.942h106.534v-40.554h-147.09V39.729c-19.776.688-35.344-4.502-46.857-10.949-23.133-12.952-50.714-42.983-50.743-112.492l-.01-20.341-40.68.017.008 20.341c.031 70.611 24.772 121.78 71.552 147.97 19.231 10.768 40.391 16.117 62.747 16.115 1.322 0 2.654-.047 3.983-.085zM-514.981 6.944v-.079c0-38.87-31.511-70.382-70.383-70.382h-90.669V136.47h40.735V77.328h49.934c38.872 0 70.383-31.512 70.383-70.384m-42.359-.201c0 16.407-13.3 29.706-29.706 29.706h-48.252v-59.412h48.252c16.406 0 29.706 13.301 29.706 29.706" style="fill-rule:nonzero" transform="translate(3658.4 1103.8)scale(4.16667)"/></svg>