<?xml version="1.0" encoding="UTF-8"?>
<svg width="401px" height="401px" viewBox="0 0 401 401" version="1.1" xmlns="http://www.w3.org/2000/svg" xmlns:xlink="http://www.w3.org/1999/xlink">
    <title>Group</title>
    <g id="Page-1" stroke="none" stroke-width="1" fill="none" fill-rule="evenodd">
        <g id="Group" fill-rule="nonzero">
            <path d="M244.339,395.434 C230.127,398.635 215.342,400.325 200.163,400.325 C187.396,400.325 174.908,399.129 162.805,396.844 L244.339,395.434 Z M288.205,379.968 C280.329,383.831 272.164,387.195 263.748,390.013 L130.046,387.699 C125.927,386.159 121.873,384.487 117.888,382.688 L288.205,379.968 Z M313.892,364.897 C308.317,368.753 302.536,372.331 296.571,375.615 L98.209,372.448 C95.8729,371.063 93.5685,369.63 91.2949,368.153 L313.892,364.897 Z M332.911,349.975 C328.552,353.84 324.022,357.515 319.336,360.993 L76.3311,357.432 C74.6825,356.132 73.0553,354.806 71.4492,353.456 L332.911,349.975 Z M347.947,335.159 C344.446,338.99 340.798,342.684 337.012,346.232 L59.4736,342.537 C58.1833,341.262 56.9098,339.97 55.6543,338.66 L347.947,335.159 Z M360.196,320.403 C357.36,324.172 354.394,327.838 351.305,331.394 L45.9111,327.729 C44.8325,326.426 43.7696,325.11 42.7236,323.779 L360.196,320.403 Z M370.271,305.7 C367.986,309.375 365.585,312.97 363.073,316.481 L34.8105,312.99 C33.8761,311.623 32.9587,310.244 32.0576,308.854 L370.271,305.7 Z M378.552,291.039 C376.735,294.598 374.815,298.096 372.795,301.528 L25.667,298.292 C24.8453,296.834 24.0408,295.365 23.2549,293.885 L378.552,291.039 Z M385.283,276.42 C383.874,279.837 382.374,283.206 380.784,286.524 L18.1885,283.64 C17.4631,282.061 16.7574,280.472 16.0723,278.871 L385.283,276.42 Z M390.649,261.815 C389.593,265.081 388.455,268.31 387.238,271.5 L12.1543,269.009 C11.5262,267.294 10.921,265.568 10.3389,263.832 L390.649,261.815 Z M394.759,247.229 C394.011,250.332 393.191,253.407 392.301,256.451 L7.43555,254.399 C6.91265,252.538 6.41625,250.665 5.94629,248.781 L394.759,247.229 Z M397.699,232.658 C397.221,235.589 396.679,238.498 396.075,241.384 L3.92871,239.818 C3.52135,237.791 3.14445,235.754 2.79883,233.705 L397.699,232.658 Z M399.532,218.097 C399.288,220.849 398.986,223.585 398.632,226.304 L1.55762,225.251 C1.28255,223.051 1.04292,220.84 0.839844,218.619 L399.532,218.097 Z M399.705,184.306 C400.115,189.537 400.325,194.826 400.325,200.163 C400.325,205.5 400.115,210.787 399.705,216.019 L399.705,211.214 L0.271484,210.679 C0.0912352,207.196 0,203.69 0,200.163 C0,196.227 0.113746,192.317 0.337891,188.437 L399.705,188.972 L399.705,184.306 Z M0.0439453,196.122 L0.0439453,203.528 L399.705,203.528 L399.705,196.122 L0.0439453,196.122 Z M398.683,174.412 C398.965,176.607 399.212,178.813 399.422,181.029 L0.853516,181.563 C1.10738,178.808 1.41589,176.069 1.78027,173.348 L398.683,174.412 Z M396.26,159.832 C396.675,161.862 397.06,163.903 397.413,165.954 L2.73438,167 C3.22334,164.067 3.77659,161.157 4.3916,158.269 L396.26,159.832 Z M392.699,145.252 C393.23,147.116 393.733,148.992 394.211,150.878 L5.72754,152.428 C6.48703,149.324 7.31831,146.248 8.2207,143.202 L392.699,145.252 Z M387.926,130.654 C388.559,132.364 389.17,134.085 389.758,135.816 L9.89258,137.842 C10.9619,134.575 12.1124,131.345 13.3428,128.155 L387.926,130.654 Z M381.831,116.021 C382.563,117.599 383.274,119.188 383.966,120.787 L15.3193,123.236 C16.7429,119.82 18.2559,116.45 19.8604,113.132 L381.831,116.021 Z M374.276,101.36 C375.106,102.82 375.919,104.291 376.713,105.773 L22.123,108.604 C23.9525,105.053 25.8843,101.564 27.916,98.1416 L374.276,101.36 Z M365.06,86.6699 C366.001,88.0358 366.925,89.4146 367.834,90.8047 L30.4805,93.9404 C32.7818,90.2719 35.1999,86.6842 37.7275,83.1807 L365.06,86.6699 Z M353.851,71.9219 C354.939,73.2244 356.01,74.5408 357.065,75.8711 L40.6416,79.2441 C43.4972,75.4827 46.4829,71.8258 49.5918,68.2793 L353.851,71.9219 Z M340.166,57.1113 C341.472,58.3901 342.76,59.688 344.031,61.002 L53.002,64.4863 C56.5295,60.6621 60.2027,56.9742 64.0156,53.4346 L340.166,57.1113 Z M323.126,42.2158 C324.799,43.5204 326.452,44.8501 328.082,46.2061 L68.2031,49.6582 C72.5905,45.8084 77.1471,42.1471 81.8613,38.6875 L323.126,42.2158 Z M300.946,27.1904 C303.335,28.585 305.693,30.0253 308.017,31.5146 L87.4365,34.7402 C93.069,30.8946 98.9063,27.3268 104.932,24.0615 L300.946,27.1904 Z M268.384,11.9268 C272.645,13.4716 276.839,15.1591 280.96,16.9795 L113.554,19.6572 C121.585,15.7968 129.913,12.4561 138.495,9.67969 L268.384,11.9268 Z M200.163,0 C211.73,0 223.068,0.981515 234.099,2.86523 L159.379,4.1582 C172.546,1.43247 186.188,0 200.163,0 Z" id="Shape" fill="#000000"></path>
            <path d="M198.128,93.6284 C198.128,99.6344 196.773,109.169 195.442,117.107 C194.774,121.096 194.105,124.717 193.604,127.34 C193.353,128.652 193.144,129.715 192.998,130.451 C192.925,130.818 192.867,131.105 192.828,131.299 C192.808,131.396 192.793,131.471 192.783,131.521 C192.778,131.546 192.774,131.565 192.771,131.578 C192.77,131.584 192.769,131.589 192.769,131.592 C192.768,131.594 192.768,131.595 192.768,131.596 L192.768,131.597 L192.521,132.795 L175.627,132.795 C166.641,133.732 160.563,136.121 156.708,140.111 C152.864,144.09 150.984,149.92 150.984,158.302 L150.984,168.766 L212.422,168.766 L212.422,154.039 C212.422,119.671 245.218,90.5883 281.795,90.5883 C288.328,90.5883 294.43,90.7366 299.028,91.0053 C301.323,91.1394 303.27,91.3051 304.717,91.5014 C305.436,91.599 306.067,91.7088 306.569,91.8354 C306.819,91.8985 307.07,91.9738 307.297,92.0668 C307.468,92.137 307.735,92.2595 307.981,92.4711 L308.085,92.5678 L308.169,92.6567 C308.568,93.1106 308.708,93.6959 308.775,94.0356 C308.865,94.4892 308.912,95.0277 308.933,95.6088 C308.974,96.7789 308.914,98.3068 308.771,100.072 C308.485,103.613 307.855,108.253 306.961,113.203 L303.883,130.726 L303.664,131.966 L289.139,131.966 C280.386,131.966 273.572,134.181 268.66,138.387 C263.751,142.591 260.56,148.939 259.353,157.563 L259.352,157.571 L257.706,168.884 L310.657,168.884 L310.657,211.684 L258.538,211.684 L258.538,340.441 L212.422,340.441 L212.422,211.684 L150.967,211.684 L149.444,338.958 L149.427,340.429 L147.957,340.441 L103.419,340.795 L101.907,340.808 L101.907,211.684 L58.9092,211.684 L58.9092,168.766 L101.907,168.766 L101.907,158.895 C101.907,118.221 132.119,89.0483 174.004,89.0483 C185.525,89.0483 191.079,89.4274 193.899,90.0453 C195.323,90.3574 196.281,90.7745 196.944,91.4282 C197.275,91.754 197.474,92.0828 197.609,92.3266 C197.766,92.6088 197.785,92.6633 197.861,92.7739 L198.128,93.1596 L198.128,93.6284 Z" id="Path" stroke="#000000" stroke-width="3" fill="#000000"></path>
            <path d="M214.781,76.9758 C214.781,82.9819 213.426,92.5163 212.095,100.454 C211.427,104.444 210.758,108.065 210.256,110.688 C210.006,111.999 209.797,113.063 209.651,113.798 C209.578,114.166 209.52,114.452 209.481,114.647 C209.461,114.744 209.446,114.818 209.436,114.868 C209.431,114.893 209.427,114.912 209.424,114.925 C209.423,114.931 209.422,114.936 209.421,114.94 C209.421,114.941 209.421,114.943 209.42,114.944 L209.173,116.143 L192.28,116.143 C183.294,117.08 177.216,119.468 173.361,123.458 C169.516,127.438 167.637,133.267 167.637,141.65 L167.637,152.114 L229.075,152.114 L229.075,137.386 C229.075,103.019 261.871,73.9358 298.448,73.9358 C304.981,73.9358 311.083,74.084 315.681,74.3528 C317.976,74.4869 319.923,74.6526 321.37,74.8489 C322.089,74.9465 322.72,75.0562 323.222,75.1829 C323.472,75.2459 323.723,75.3213 323.95,75.4143 C324.121,75.4845 324.388,75.607 324.634,75.8186 L324.738,75.9153 L324.822,76.0042 C325.221,76.4581 325.361,77.0434 325.428,77.3831 C325.518,77.8367 325.565,78.3752 325.585,78.9563 C325.627,80.1263 325.567,81.6542 325.424,83.4192 C325.138,86.9601 324.508,91.6004 323.614,96.55 L320.536,114.073 L320.317,115.314 L305.792,115.314 C297.039,115.314 290.225,117.528 285.313,121.735 C280.404,125.938 277.213,132.286 276.005,140.91 L276.004,140.918 L274.359,152.232 L327.31,152.232 L327.31,195.031 L275.191,195.031 L275.191,323.788 L229.075,323.788 L229.075,195.031 L167.62,195.031 L166.097,322.306 L166.08,323.777 L164.61,323.788 L120.072,324.143 L118.56,324.156 L118.56,195.031 L75.562,195.031 L75.562,152.114 L118.56,152.114 L118.56,142.242 C118.56,101.569 148.772,72.3958 190.657,72.3958 C202.178,72.3958 207.732,72.7748 210.552,73.3928 C211.976,73.7048 212.933,74.122 213.597,74.7756 C213.928,75.1015 214.127,75.4302 214.262,75.6741 C214.419,75.9563 214.438,76.0108 214.514,76.1213 L214.781,76.5071 L214.781,76.9758 Z" id="Path" stroke="#000000" stroke-width="3" fill="#FFD000"></path>
        </g>
    </g>
</svg>